<svg xmlns="http://www.w3.org/2000/svg" xmlns:svg="http://www.w3.org/2000/svg" xmlns:xlink="http://www.w3.org/1999/xlink" id="svg2" width="1052.362" height="744.094" version="1.1"><defs id="defs4"><marker id="Arrow1Mend" orient="auto" refX="0" refY="0" style="overflow:visible"><path id="path3855" d="M 0.0,0.0 L 5.0,-5.0 L -12.5,0.0 L 5.0,5.0 L 0.0,0.0 z" style="fill-rule:evenodd;stroke:#000;stroke-width:1pt;marker-start:none" transform="scale(0.4) rotate(180) translate(10,0)"/></marker></defs><metadata id="metadata7"/><g id="layer1" transform="translate(0,-308.2677)"><g id="g4379" transform="translate(170,120)"><rect rx="0" style="fill:#e9ddaf;fill-opacity:.51282055;stroke:none" id="rect4315-7" width="160" height="60" x="40" y="382.362" ry="0"/><g id="g4570" transform="translate(-170,-120)"><rect style="fill:none;stroke:#666;stroke-width:1;stroke-miterlimit:4;stroke-opacity:1;stroke-dasharray:none" id="rect2816" width="160" height="60" x="210" y="502.362" rx="0" ry="0"/><path style="fill:none;stroke:#666;stroke-width:1px;stroke-linecap:butt;stroke-linejoin:miter;stroke-opacity:1;marker-end:url(#Arrow1Mend)" id="path4384" d="m 210,204.09448 -30,0" transform="translate(0,308.2677)"/></g></g><use id="use4409" width="1052.362" height="744.094" x="0" y="0" transform="translate(200,-1.9531262e-7)" xlink:href="#g4379"/><use id="use4411" width="1052.362" height="744.094" x="0" y="0" transform="translate(400,-1.9531262e-7)" xlink:href="#g4379"/><use id="use4413" width="1052.362" height="744.094" x="0" y="0" transform="translate(600,-1.9531262e-7)" xlink:href="#g4379"/><text xml:space="preserve" style="font-size:12;font-style:normal;font-weight:400;fill:#2c2ca0;fill-opacity:1;stroke:none;font-family:Bitstream Vera Sans" id="text3667-8" x="220" y="472.362"><tspan id="tspan3669-4" x="220" y="472.362">./wc/trunk</tspan></text><text xml:space="preserve" style="font-size:12;font-style:normal;font-weight:400;fill:#2c2ca0;fill-opacity:1;stroke:none;font-family:Bitstream Vera Sans" id="text3671-0" x="420" y="472.362"><tspan id="tspan3673-8" x="420" y="472.362">.../tools</tspan></text><text xml:space="preserve" style="font-size:12;font-style:normal;font-weight:400;fill:#2c2ca0;fill-opacity:1;stroke:none;font-family:Bitstream Vera Sans" id="text3675-4" x="620" y="472.362"><tspan id="tspan3677-2" x="620" y="472.362">.../dist</tspan></text><text xml:space="preserve" style="font-size:12;font-style:normal;font-weight:400;fill:#2c2ca0;fill-opacity:1;stroke:none;font-family:Bitstream Vera Sans" id="text3679-5" x="820" y="472.362"><tspan id="tspan3681-4" x="820" y="472.362">.../test.sh</tspan></text><g id="g3765" transform="translate(-200,2.421875e-6)"><path id="path3730" d="m 410,602.36218 160,60" style="fill:none;stroke:#c8c8c8;stroke-width:1;stroke-linecap:butt;stroke-linejoin:miter;stroke-opacity:1;stroke-miterlimit:4;stroke-dasharray:none;stroke-dashoffset:0"/><path id="path3732" d="m 570,602.36218 -160,60" style="fill:none;stroke:#c8c8c8;stroke-width:1;stroke-linecap:butt;stroke-linejoin:miter;stroke-opacity:1;stroke-miterlimit:4;stroke-dasharray:none;stroke-dashoffset:0"/><rect style="fill:#a02c2c;fill-opacity:.06465517;stroke:#c8c8c8;stroke-width:1;stroke-miterlimit:4;stroke-opacity:1;stroke-dasharray:none;stroke-dashoffset:0" id="rect5072" width="160" height="60" x="210" y="294.094" rx="0" ry="0" transform="translate(200,308.2677)"/></g><use id="use3773" width="1052.362" height="744.094" x="0" y="0" transform="translate(200,2.421875e-6)" xlink:href="#g3765"/><use id="use3775" width="1052.362" height="744.094" x="0" y="0" transform="translate(400,0)" xlink:href="#g3765"/><use id="use3777" width="1052.362" height="744.094" x="0" y="0" transform="translate(600,0)" xlink:href="#g3765"/><use id="use3779" width="1052.362" height="744.094" x="0" y="0" transform="translate(0,100)" xlink:href="#g3765"/><use id="use3781" width="1052.362" height="744.094" x="0" y="0" transform="translate(0,200)" xlink:href="#g3765"/><path style="fill:none;stroke:#2c2ca0;stroke-width:1px;stroke-linecap:butt;stroke-linejoin:miter;stroke-opacity:1" id="path3783" d="m 210,174.09448 160,0" transform="translate(0,308.2677)"/><use id="use3785" width="1052.362" height="744.094" x="0" y="0" transform="translate(200,2.4218753e-6)" xlink:href="#path3783" style="stroke:#2c2ca0"/><use id="use3787" width="1052.362" height="744.094" x="0" y="0" transform="translate(400,2.4218753e-6)" xlink:href="#path3783" style="stroke:#2c2ca0"/><use id="use3789" width="1052.362" height="744.094" x="0" y="0" transform="translate(600,2.4218753e-6)" xlink:href="#path3783" style="stroke:#2c2ca0"/><use id="use4580" width="1052.362" height="744.094" x="0" y="0" transform="translate(370,420)" xlink:href="#g4570"/><g id="g4604"><rect style="fill:#f4c0c0;stroke:none;stroke-width:1;stroke-miterlimit:4;stroke-opacity:1;stroke-dasharray:none;fill-opacity:.51282053999999999" id="rect3111" width="160" height="60" x="410" y="394.094" ry="0" transform="translate(0,308.2677)"/><use id="use4598" width="1052.362" height="744.094" x="0" y="0" transform="translate(370,320)" xlink:href="#g4570"/><text id="text4600" x="420" y="722.362" style="font-size:12px;font-style:normal;font-weight:400;fill:#000;fill-opacity:1;stroke:none;font-family:Bitstream Vera Sans" xml:space="preserve"><tspan id="tspan4602" x="420" y="722.362">base-deleted</tspan></text></g><use id="use4609" width="1052.362" height="744.094" x="0" y="0" transform="translate(200,-1.9531262e-7)" xlink:href="#g4604"/><use id="use4611" width="1052.362" height="744.094" x="0" y="0" transform="translate(400,-1.9531262e-7)" xlink:href="#g4604"/><text xml:space="preserve" style="font-size:12px;font-style:normal;font-weight:400;fill:#000;fill-opacity:1;stroke:none;font-family:Bitstream Vera Sans" id="text4613" x="50" y="472.362"><tspan id="tspan4615" x="50" y="472.362">Local path</tspan></text><text xml:space="preserve" style="font-size:12px;font-style:normal;font-weight:400;fill:#000;fill-opacity:1;stroke:none;font-family:Bitstream Vera Sans" id="text4617" x="50" y="532.362"><tspan id="tspan4619" x="50" y="532.362">BASE_NODE</tspan></text><text xml:space="preserve" style="font-size:12px;font-style:normal;font-weight:400;fill:#000;fill-opacity:1;stroke:none;font-family:Bitstream Vera Sans" id="text4621" x="50" y="632.362"><tspan id="tspan4623" x="50" y="632.362">WORKING_NODE</tspan></text><path style="fill:none;stroke:#000;stroke-width:1;stroke-linecap:butt;stroke-linejoin:miter;stroke-miterlimit:4;stroke-opacity:1;stroke-dasharray:4,4;stroke-dashoffset:0;marker-end:url(#Arrow1Mend)" id="path4876" d="m 450,662.36218 c -5.76429,9.98404 -5.82619,29.90874 0,40"/><use id="use5062" width="1052.362" height="744.094" x="0" y="0" transform="matrix(-1,0,0,-1,1000,1364.7244)" xlink:href="#path4876"/><text xml:space="preserve" style="font-size:12px;font-style:normal;font-weight:400;fill:#000;fill-opacity:1;stroke:none;font-family:Bitstream Vera Sans" id="text5064" x="425" y="682.362"><tspan id="tspan5066" x="425" y="682.362">rm</tspan></text><path id="use3041" d="m 520,802.36221 c 20.17502,-34.94415 20.39167,-104.68061 0,-140.00003" style="fill:none;stroke:#000;stroke-width:1;stroke-linecap:butt;stroke-linejoin:miter;stroke-miterlimit:4;stroke-opacity:1;stroke-dasharray:3.99999997,3.99999997;stroke-dashoffset:0;marker-end:url(#Arrow1Mend)"/><g id="g3059"><path id="text3051" d="m 550.625,673.65625 c -3.5534,0.64738 -5.35507,0.0738 -8.84375,0.125 -6.06726,0.0782 -5.26921,1.42017 -10.34375,0.0312 -4.12848,-0.21908 -8.18369,-0.0486 -12.34375,0 -1.62035,5.15196 1.21798,15.41093 5.09375,8.5625 1.66356,2.4886 6.15574,2.73484 8.9375,1.03125 1.98461,4.02923 5.3133,-2.1858 6.21875,-0.375 3.28301,2.95374 7.67188,0.39239 11.375,1.34375 0.0241,-3.89993 -0.45846,-2.66842 1.3125,-0.78125 2.79193,1.62167 7.63138,1.32071 5.875,-3.125 -3.85314,-0.99659 2.96992,-6.50852 -3.21875,-8.53125 -1.53448,0.54076 -5.05592,-1.39236 -4.0625,1.71875 z" style="font-size:12px;font-style:normal;font-weight:400;fill:#f9f9f9;fill-opacity:1;stroke:none;font-family:Bitstream Vera Sans"/><text id="text5068" x="520" y="682.362" style="font-size:12px;font-style:normal;font-weight:400;fill:#000;fill-opacity:1;stroke:none;font-family:Bitstream Vera Sans" xml:space="preserve"><tspan id="tspan5070" x="520" y="682.362">revert</tspan></text></g><use id="use5074" width="1052.362" height="744.094" x="0" y="0" transform="translate(0,100)" xlink:href="#text4621"/><use id="use5076" width="1052.362" height="744.094" x="0" y="0" transform="translate(0,200)" xlink:href="#text4621"/><use id="use5078" width="1052.362" height="744.094" x="0" y="0" transform="translate(0,100)" xlink:href="#path4876"/><g id="g3070"><path id="text3064" d="m 411.25,771.625 c -3.32118,5.56924 -3.84387,0.80398 -9.59375,0 -2.11765,0.65219 -5.8347,8.93797 -6.71875,4.53125 -2.58047,-4.32978 -8.26906,-1.78777 -12.28125,-2.375 -6.37304,1.14681 -4.51386,12.04779 2,10.71875 1.04224,1.96126 5.80233,4.0877 6.78125,0.0312 2.66537,-0.32042 4.3297,-3.09414 4.125,-5.65625 4.30093,0.8167 11.45374,-3.17945 11.27845,1.90896 -3.78073,8.05052 4.63812,2.72808 6.40905,3.59104 3.45605,0.54851 5.83621,-0.80273 8.6875,0 5.77576,-1.42201 8.96746,2.82799 13.17207,0.13889 0.12251,-4.60132 1.98439,0.76831 4.60918,-0.13889 2.76422,-0.52148 6.44727,1.20767 8.78125,-1.34375 1.56968,1.78099 4.49052,1.95076 6.4375,0.71875 3.18297,1.39142 8.44479,0.35813 12.3125,0.625 3.57252,0.0141 6.47624,-0.74556 9.21875,1.59375 4.45358,2.21303 7.73081,-2.97225 11.875,-1.4375 2.56905,0.56238 3.93411,-3.61834 5.59375,-0.6875 4.93162,2.91531 8.89218,-3.34772 7.4375,-7.78125 -0.17702,-4.7645 -6.63827,-5.78597 -8.90625,-2.84375 -2.1193,-3.09266 -6.92774,-1.51853 -8.375,0.59375 -2.89857,-3.19249 -8.41921,-1.69393 -10.6875,0.34375 -1.69368,-4.18238 -8.5223,-2.75917 -9.71875,-0.4375 -2.26696,-0.44304 -5.01513,1.61085 -3.6875,-2.46875 -5.50761,-2.50168 -3.49213,4.15555 -6.78125,2.46875 -2.73099,-1.02731 -4.48979,2.66706 -6.53125,0.25 -2.23205,-1.28827 -6.62015,1.86024 -6.0625,-2.03125 -3.47876,-2.57782 -8.72687,2.66321 -7.96875,2 -1.98662,-3.90082 -8.1532,-2.55878 -9.78125,-0.125 -2.57039,-0.29798 -4.77661,0.97195 -6.53125,-0.5625 1.33777,-3.32493 -4.04286,-1.86181 -5.09375,-1.625 z m 16.15625,5 c -1.02718,1.42412 -0.86564,-0.015 0,0 z m 40.65625,0 c -2.2096,3.07496 -2.57854,0.66393 0,0 z m -84.125,1.9375 c 3.52673,0.21788 -1.14294,2.24791 0,0 z m 41,0.59375 c -1.56762,3.07959 -1.50383,-2.03455 0,0 z" style="font-size:12px;font-style:normal;font-weight:400;fill:#f9f9f9;fill-opacity:1;stroke:none;font-family:Bitstream Vera Sans"/><text id="text5080" x="380" y="782.362" style="font-size:12px;font-style:normal;font-weight:400;fill:#000;fill-opacity:1;stroke:none;font-family:Bitstream Vera Sans" xml:space="preserve"><tspan id="tspan5082" x="380" y="782.362">cp ^/br2/tools2@90</tspan></text></g><rect rx="0" style="fill:#f4c0c0;fill-opacity:.51282055;stroke:#666;stroke-width:1;stroke-miterlimit:4;stroke-opacity:1;stroke-dasharray:none" id="rect3111-0" width="160" height="60" x="410" y="802.362" ry="0"/><text xml:space="preserve" style="font-size:12px;font-style:normal;font-weight:400;fill:#000;fill-opacity:1;stroke:none;font-family:Bitstream Vera Sans" id="text5084" x="420" y="822.362"><tspan id="tspan5086" x="420" y="822.362">normal</tspan><tspan id="tspan5088" x="420" y="837.362">cp-from: r90,</tspan><tspan id="tspan5090" x="420" y="852.362"> ^/br2/tools2</tspan></text><use id="use3075" width="1052.362" height="744.094" x="0" y="0" transform="translate(570,420)" xlink:href="#g4570"/><use id="use3077" width="1052.362" height="744.094" x="0" y="0" transform="translate(770,420)" xlink:href="#g4570"/><use id="use3913" width="1052.362" height="744.094" x="0" y="0" transform="translate(200,-1.9531262e-7)" xlink:href="#rect3111-0"/><text id="text3079" x="620" y="822.362" style="font-size:12px;font-style:normal;font-weight:400;fill:#000;fill-opacity:1;stroke:none;font-family:Bitstream Vera Sans" xml:space="preserve"><tspan id="tspan3081" x="620" y="822.362">normal</tspan><tspan id="tspan3085" x="620" y="837.362">cp-from: NULL</tspan></text><use id="use3915" width="1052.362" height="744.094" x="0" y="0" transform="translate(400,-1.9531262e-7)" xlink:href="#rect3111-0"/><text xml:space="preserve" style="font-size:12px;font-style:normal;font-weight:400;fill:#000;fill-opacity:1;stroke:none;font-family:Bitstream Vera Sans" id="text3087" x="820" y="822.362"><tspan id="tspan3089" x="820" y="822.362">normal</tspan><tspan id="tspan3093" x="820" y="837.362">cp-from: NULL</tspan><tspan id="tspan3101" x="820" y="852.362">pristine: XXX2</tspan></text><text xml:space="preserve" style="font-size:12;font-style:normal;font-weight:400;fill:#000;fill-opacity:1;stroke:none;font-family:Bitstream Vera Sans" id="text3667" x="220" y="522.362"><tspan id="tspan3669" x="220" y="522.362">^/trunk @50</tspan></text><text xml:space="preserve" style="font-size:12;font-style:normal;font-weight:400;fill:#000;fill-opacity:1;stroke:none;font-family:Bitstream Vera Sans" id="text3671" x="420" y="522.362"><tspan id="tspan3673" x="420" y="522.362">^/.../tools @80</tspan></text><text xml:space="preserve" style="font-size:12;font-style:normal;font-weight:400;fill:#000;fill-opacity:1;stroke:none;font-family:Bitstream Vera Sans" id="text3675" x="620" y="522.362"><tspan id="tspan3677" x="620" y="522.362">^/.../dist @60</tspan></text><text xml:space="preserve" style="font-size:12px;font-style:normal;font-weight:400;fill:#000;fill-opacity:1;stroke:none;font-family:Bitstream Vera Sans" id="text3679" x="820" y="522.362"><tspan id="tspan3681" x="820" y="522.362">^/.../test.sh @70</tspan><tspan id="tspan3099" x="820" y="537.362">pristine: XXX1</tspan></text><text xml:space="preserve" style="font-size:8px;font-style:normal;font-weight:400;fill:#000;fill-opacity:1;stroke:none;font-family:Bitstream Vera Sans" id="text3103" x="50" y="682.362"><tspan id="tspan3105" x="50" y="682.362">svn rm wc/trunk/tools</tspan></text><text xml:space="preserve" style="font-size:8px;font-style:normal;font-weight:400;fill:#000;fill-opacity:1;stroke:none;font-family:Bitstream Vera Sans" id="text3107" x="50" y="782.362"><tspan id="tspan3109" x="50" y="782.362">svn cp ^/br2/tools2@90 wc/trunk/tools</tspan></text><text xml:space="preserve" style="font-size:8px;font-style:normal;font-weight:400;fill:#000;fill-opacity:1;stroke:none;font-family:Bitstream Vera Sans" id="text4415" x="50" y="382.362"><tspan id="tspan4417" x="50" y="382.362" style="font-size:10px">This diagram aims to show the changes required in the WC-NG &quot;WORKING_NODE&quot; table to represent </tspan><tspan id="tspan4421" x="50" y="394.862" style="font-size:10px">local tree modifications such as &quot;rm&quot;, &quot;cp&quot; and &quot;revert&quot;. We can extend this to design how such operations, </tspan><tspan id="tspan4425" x="50" y="407.362" style="font-size:10px">especially &quot;revert&quot;, will work inside a subtree that is already locally modified (e.g. replaced).</tspan></text><text xml:space="preserve" style="font-size:12px;font-style:normal;font-weight:400;fill:#2c2ca0;fill-opacity:1;stroke:none;font-family:Bitstream Vera Sans" id="text5084-9" x="440" y="892.362"><tspan id="tspan5086-6" x="440" y="892.362">(root of copy)</tspan><tspan id="tspan5088-0" x="440" y="907.362">cp-from: r90,</tspan><tspan id="tspan5090-7" x="440" y="922.362"> ^/br2/tools2</tspan></text><text id="text3079-0" x="640" y="892.362" style="font-size:12px;font-style:normal;font-weight:400;fill:#2c2ca0;fill-opacity:1;stroke:none;font-family:Bitstream Vera Sans" xml:space="preserve"><tspan id="tspan3081-1" x="640" y="892.362">(child of copy)</tspan><tspan id="tspan3083" x="640" y="907.362">cp-from: r90,</tspan><tspan id="tspan3085-0" x="640" y="922.362"> ^/br2/tools2/dist2</tspan></text><text xml:space="preserve" style="font-size:12px;font-style:normal;font-weight:400;fill:#2c2ca0;fill-opacity:1;stroke:none;font-family:Bitstream Vera Sans" id="text3087-1" x="840" y="892.362"><tspan id="tspan3089-3" x="840" y="892.362">(child of copy)</tspan><tspan id="tspan3091" x="840" y="907.362">cp-from: r90,</tspan><tspan id="tspan3093-7" x="840" y="922.362"> ^/br2/.../test.sh2</tspan><tspan id="tspan3101-7" x="840" y="937.362">pristine: XXX2</tspan></text><text xml:space="preserve" style="font-size:8px;font-style:normal;font-weight:400;fill:#000;fill-opacity:1;stroke:none;font-family:Bitstream Vera Sans" id="text3041" x="50" y="892.362"><tspan id="tspan3043" x="50" y="892.362" style="font-size:12px">--&gt; (implied WORKING info)</tspan></text><use id="use3045" width="1052.362" height="744.094" x="0" y="0" transform="translate(0,99.999962)" xlink:href="#use5062"/><g id="g3047" transform="translate(20,100)"><path style="font-size:12px;font-style:normal;font-weight:400;fill:#f9f9f9;fill-opacity:1;stroke:none;font-family:Bitstream Vera Sans" id="path3049" d="m 550.625,673.65625 c -3.5534,0.64738 -5.35507,0.0738 -8.84375,0.125 -6.06726,0.0782 -5.26921,1.42017 -10.34375,0.0312 -4.12848,-0.21908 -8.18369,-0.0486 -12.34375,0 -1.62035,5.15196 1.21798,15.41093 5.09375,8.5625 1.66356,2.4886 6.15574,2.73484 8.9375,1.03125 1.98461,4.02923 5.3133,-2.1858 6.21875,-0.375 3.28301,2.95374 7.67188,0.39239 11.375,1.34375 0.0241,-3.89993 -0.45846,-2.66842 1.3125,-0.78125 2.79193,1.62167 7.63138,1.32071 5.875,-3.125 -3.85314,-0.99659 2.96992,-6.50852 -3.21875,-8.53125 -1.53448,0.54076 -5.05592,-1.39236 -4.0625,1.71875 z"/><text xml:space="preserve" style="font-size:12px;font-style:normal;font-weight:400;fill:#000;fill-opacity:1;stroke:none;font-family:Bitstream Vera Sans" id="text3052" x="520" y="682.362"><tspan id="tspan3054" x="520" y="682.362">rm --force</tspan></text></g><text id="text3982" x="240" y="892.362" style="font-size:12px;font-style:normal;font-weight:400;fill:#2c2ca0;fill-opacity:1;stroke:none;font-family:Bitstream Vera Sans" xml:space="preserve"><tspan id="tspan3988" x="240" y="892.362">(normal)</tspan></text></g></svg>